{
  "accessors": [
    {
      "bufferView": 2,
      "componentType": 5126,
      "count": 21507,
      "max": [
        20.091129302978516,
        121.00530242919922,
        82.58769989013672
      ],
      "min": [
        -28.077301025390625,
        -130.87289428710938,
        11.649060249328613
      ],
      "type": "VEC3"
    },
    {
      "bufferView": 2,
      "byteOffset": 258084,
      "componentType": 5126,
      "count": 21507,
      "max": [
        1.0,
        1.0,
        1.0
      ],
      "min": [
        -1.0,
        -1.0,
        -1.0
      ],
      "type": "VEC3"
    },
    {
      "bufferView": 1,
      "componentType": 5126,
      "count": 21507,
      "max": [
        38.58391189575195,
        8.414928436279297
      ],
      "min": [
        0.006531042046844959,
        0.0065604401752352715
      ],
      "type": "VEC2"
    },
    {
      "bufferView": 0,
      "componentType": 5125,
      "count": 38874,
      "type": "SCALAR"
    },
    {
      "bufferView": 2,
      "byteOffset": 516168,
      "componentType": 5126,
      "count": 48734,
      "max": [
        21.147130966186523,
        121.7957992553711,
        79.89317321777344
      ],
      "min": [
        -34.45853042602539,
        -130.24331665039063,
        23.197040557861328
      ],
      "type": "VEC3"
    },
    {
      "bufferView": 2,
      "byteOffset": 1100976,
      "componentType": 5126,
      "count": 48734,
      "max": [
        1.0,
        1.0,
        1.0
      ],
      "min": [
        -1.0,
        -1.0,
        -1.0
      ],
      "type": "VEC3"
    },
    {
      "bufferView": 1,
      "byteOffset": 172056,
      "componentType": 5126,
      "count": 48734,
      "max": [
        1.2784359455108643,
        0.9935339093208313
      ],
      "min": [
        0.004347688984125853,
        0.006467700004577637
      ],
      "type": "VEC2"
    },
    {
      "bufferView": 0,
      "byteOffset": 155496,
      "componentType": 5125,
      "count": 74478,
      "type": "SCALAR"
    },
    {
      "bufferView": 2,
      "byteOffset": 1685784,
      "componentType": 5126,
      "count": 5732,
      "max": [
        18.163578033447266,
        100.2105941772461,
        76.55297088623047
      ],
      "min": [
        -24.642887115478516,
        -62.68135452270508,
        35.92192077636719
      ],
      "type": "VEC3"
    },
    {
      "bufferView": 2,
      "byteOffset": 1754568,
      "componentType": 5126,
      "count": 5732,
      "max": [
        1.0,
        0.9999957084655762,
        1.0
      ],
      "min": [
        -1.0,
        -0.9999957084655762,
        -1.0
      ],
      "type": "VEC3"
    },
    {
      "bufferView": 1,
      "byteOffset": 561928,
      "componentType": 5126,
      "count": 5732,
      "max": [
        1.42330002784729,
        0.9936633110046387
      ],
      "min": [
        -0.033368028700351715,
        -0.497756689786911
      ],
      "type": "VEC2"
    },
    {
      "bufferView": 0,
      "byteOffset": 453408,
      "componentType": 5125,
      "count": 8886,
      "type": "SCALAR"
    },
    {
      "bufferView": 2,
      "byteOffset": 1823352,
      "componentType": 5126,
      "count": 4,
      "max": [
        -13.492521286010742,
        -20.863500595092773,
        57.2900505065918
      ],
      "min": [
        -13.537189483642578,
        -32.7889289855957,
        51.477638244628906
      ],
      "type": "VEC3"
    },
    {
      "bufferView": 2,
      "byteOffset": 1823400,
      "componentType": 5126,
      "count": 4,
      "max": [
        0.9999930262565613,
        0.4622631072998047,
        0.5128400325775146
      ],
      "min": [
        0.7287288308143616,
        -0.45381656289100647,
        -1.4439519873121753e-05
      ],
      "type": "VEC3"
    },
    {
      "bufferView": 1,
      "byteOffset": 607784,
      "componentType": 5126,
      "count": 4,
      "max": [
        1.0,
        1.0
      ],
      "min": [
        0.0,
        0.0
      ],
      "type": "VEC2"
    },
    {
      "bufferView": 0,
      "byteOffset": 488952,
      "componentType": 5125,
      "count": 6,
      "type": "SCALAR"
    },
    {
      "bufferView": 2,
      "byteOffset": 1823448,
      "componentType": 5126,
      "count": 3,
      "max": [
        -13.492521286010742,
        -20.863500595092773,
        57.2900505065918
      ],
      "min": [
        -13.532960891723633,
        -31.672117233276367,
        51.477638244628906
      ],
      "type": "VEC3"
    },
    {
      "bufferView": 2,
      "byteOffset": 1823484,
      "componentType": 5126,
      "count": 3,
      "max": [
        0.9264094233512878,
        0.4622631072998047,
        0.5128400325775146
      ],
      "min": [
        0.7287288308143616,
        -0.45381656289100647,
        -1.363424985356687e-06
      ],
      "type": "VEC3"
    },
    {
      "bufferView": 1,
      "byteOffset": 607816,
      "componentType": 5126,
      "count": 3,
      "max": [
        1.0,
        1.0
      ],
      "min": [
        0.0,
        8.881784197001252e-16
      ],
      "type": "VEC2"
    },
    {
      "bufferView": 0,
      "byteOffset": 488976,
      "componentType": 5125,
      "count": 3,
      "type": "SCALAR"
    },
    {
      "bufferView": 2,
      "byteOffset": 1823520,
      "componentType": 5126,
      "count": 3,
      "max": [
        -13.492521286010742,
        -20.863500595092773,
        59.55379867553711
      ],
      "min": [
        -13.532960891723633,
        -31.672117233276367,
        53.846168518066406
      ],
      "type": "VEC3"
    },
    {
      "bufferView": 2,
      "byteOffset": 1823556,
      "componentType": 5126,
      "count": 3,
      "max": [
        0.9999930262565613,
        0.37651780247688293,
        0.5128400325775146
      ],
      "min": [
        0.7287288308143616,
        -0.45381656289100647,
        -5.727857114834478e-06
      ],
      "type": "VEC3"
    },
    {
      "bufferView": 1,
      "byteOffset": 607840,
      "componentType": 5126,
      "count": 3,
      "max": [
        1.0,
        1.0
      ],
      "min": [
        0.0,
        0.0
      ],
      "type": "VEC2"
    },
    {
      "bufferView": 0,
      "byteOffset": 488988,
      "componentType": 5125,
      "count": 3,
      "type": "SCALAR"
    },
    {
      "bufferView": 2,
      "byteOffset": 1823592,
      "componentType": 5126,
      "count": 67,
      "max": [
        17.765548706054688,
        57.0026969909668,
        65.41822052001953
      ],
      "min": [
        -23.604759216308594,
        -115.54685974121094,
        28.88736915588379
      ],
      "type": "VEC3"
    },
    {
      "bufferView": 0,
      "byteOffset": 489000,
      "componentType": 5125,
      "count": 80,
      "type": "SCALAR"
    },
    {
      "bufferView": 2,
      "byteOffset": 1824396,
      "componentType": 5126,
      "count": 10,
      "max": [
        -13.397015571594238,
        -84.75260162353516,
        37.64799499511719
      ],
      "min": [
        -14.760973930358887,
        -88.64730834960938,
        37.636138916015625
      ],
      "type": "VEC3"
    },
    {
      "bufferView": 2,
      "byteOffset": 1824516,
      "componentType": 5126,
      "count": 10,
      "max": [
        0.00023343993234448135,
        0.0030650170519948006,
        0.9999989867210388
      ],
      "min": [
        -0.00023343993234448135,
        -0.0030650170519948006,
        -0.9999989867210388
      ],
      "type": "VEC3"
    },
    {
      "bufferView": 1,
      "byteOffset": 607864,
      "componentType": 5126,
      "count": 10,
      "max": [
        1.0,
        1.0
      ],
      "min": [
        0.0,
        -8.881784197001252e-16
      ],
      "type": "VEC2"
    },
    {
      "bufferView": 0,
      "byteOffset": 489320,
      "componentType": 5125,
      "count": 18,
      "type": "SCALAR"
    }
  ],
  "asset": {
    "extras": {
      "author": "Götz von Berlichingen (https://sketchfab.com/vonBerlichingen)",
      "license": "CC-BY-4.0 (http://creativecommons.org/licenses/by/4.0/)",
      "source": "https://sketchfab.com/3d-models/german-aircraft-carrier-graf-zeppelin-low-poly-826d09ed54ab425a83ba09e82f082c70",
      "title": "German aircraft carrier Graf Zeppelin (low poly)"
    },
    "generator": "Sketchfab-15.15.0",
    "version": "2.0"
  },
  "bufferViews": [
    {
      "buffer": 0,
      "byteLength": 489392,
      "name": "floatBufferViews",
      "target": 34963
    },
    {
      "buffer": 0,
      "byteLength": 607944,
      "byteOffset": 489392,
      "byteStride": 8,
      "name": "floatBufferViews",
      "target": 34962
    },
    {
      "buffer": 0,
      "byteLength": 1824636,
      "byteOffset": 1097336,
      "byteStride": 12,
      "name": "floatBufferViews",
      "target": 34962
    }
  ],
  "buffers": [
    {
      "byteLength": 2921972,
      "uri": "scene.bin"
    }
  ],
  "extensionsUsed": [
    "KHR_materials_specular"
  ],
  "images": [
    {
      "uri": "textures/auto_2_baseColor.png"
    },
    {
      "uri": "textures/auto_3_baseColor.png"
    },
    {
      "uri": "textures/auto_1_baseColor.png"
    },
    {
      "uri": "textures/auto_2_1_baseColor.png"
    },
    {
      "uri": "textures/auto_2_2_baseColor.png"
    },
    {
      "uri": "textures/auto_2_3_baseColor.png"
    },
    {
      "uri": "textures/auto_2_0_baseColor.png"
    },
    {
      "uri": "textures/auto_2_0_specularf0.png"
    }
  ],
  "materials": [
    {
      "extensions": {
        "KHR_materials_specular": {
          "specularColorFactor": [
            1.0,
            1.0,
            1.0
          ],
          "specularFactor": 1.0
        }
      },
      "name": "auto_2",
      "pbrMetallicRoughness": {
        "baseColorTexture": {
          "index": 0
        },
        "metallicFactor": 0.46518527086783495,
        "roughnessFactor": 0.6
      }
    },
    {
      "name": "auto_3",
      "pbrMetallicRoughness": {
        "baseColorTexture": {
          "index": 1
        },
        "metallicFactor": 0.0,
        "roughnessFactor": 0.6
      }
    },
    {
      "extensions": {
        "KHR_materials_specular": {
          "specularColorFactor": [
            1.0,
            1.0,
            1.0
          ],
          "specularFactor": 0.504238495
        }
      },
      "name": "auto_1",
      "pbrMetallicRoughness": {
        "baseColorTexture": {
          "index": 2
        },
        "metallicFactor": 0.0,
        "roughnessFactor": 0.6
      }
    },
    {
      "name": "auto_2_1",
      "pbrMetallicRoughness": {
        "baseColorTexture": {
          "index": 3
        },
        "metallicFactor": 0.0,
        "roughnessFactor": 0.6
      }
    },
    {
      "name": "auto_2_2",
      "pbrMetallicRoughness": {
        "baseColorTexture": {
          "index": 4
        },
        "metallicFactor": 0.0,
        "roughnessFactor": 0.6
      }
    },
    {
      "name": "auto_2_3",
      "pbrMetallicRoughness": {
        "baseColorTexture": {
          "index": 5
        },
        "metallicFactor": 0.0,
        "roughnessFactor": 0.6
      }
    },
    {
      "name": "edge_color000255",
      "pbrMetallicRoughness": {
        "baseColorFactor": [
          0.0,
          0.0,
          0.0,
          1.0
        ],
        "metallicFactor": 0.0,
        "roughnessFactor": 0.6
      }
    },
    {
      "extensions": {
        "KHR_materials_specular": {
          "specularColorFactor": [
            1.0,
            1.0,
            1.0
          ],
          "specularFactor": 1.0,
          "specularTexture": {
            "index": 7
          }
        }
      },
      "name": "auto_2_0",
      "pbrMetallicRoughness": {
        "baseColorTexture": {
          "index": 6
        },
        "metallicFactor": 0.0,
        "roughnessFactor": 0.6
      }
    }
  ],
  "meshes": [
    {
      "name": "Material2",
      "primitives": [
        {
          "attributes": {
            "NORMAL": 1,
            "POSITION": 0,
            "TEXCOORD_0": 2
          },
          "indices": 3,
          "material": 0,
          "mode": 4
        }
      ]
    },
    {
      "name": "Material2",
      "primitives": [
        {
          "attributes": {
            "NORMAL": 5,
            "POSITION": 4,
            "TEXCOORD_0": 6
          },
          "indices": 7,
          "material": 1,
          "mode": 4
        }
      ]
    },
    {
      "name": "Material2",
      "primitives": [
        {
          "attributes": {
            "NORMAL": 9,
            "POSITION": 8,
            "TEXCOORD_0": 10
          },
          "indices": 11,
          "material": 2,
          "mode": 4
        }
      ]
    },
    {
      "name": "Material3",
      "primitives": [
        {
          "attributes": {
            "NORMAL": 13,
            "POSITION": 12,
            "TEXCOORD_0": 14
          },
          "indices": 15,
          "material": 3,
          "mode": 4
        }
      ]
    },
    {
      "name": "Material4",
      "primitives": [
        {
          "attributes": {
            "NORMAL": 17,
            "POSITION": 16,
            "TEXCOORD_0": 18
          },
          "indices": 19,
          "material": 4,
          "mode": 4
        }
      ]
    },
    {
      "name": "Material5",
      "primitives": [
        {
          "attributes": {
            "NORMAL": 21,
            "POSITION": 20,
            "TEXCOORD_0": 22
          },
          "indices": 23,
          "material": 5,
          "mode": 4
        }
      ]
    },
    {
      "name": "Material2",
      "primitives": [
        {
          "attributes": {
            "POSITION": 24
          },
          "indices": 25,
          "material": 6,
          "mode": 1
        }
      ]
    },
    {
      "name": "Material3",
      "primitives": [
        {
          "attributes": {
            "NORMAL": 27,
            "POSITION": 26,
            "TEXCOORD_0": 28
          },
          "indices": 29,
          "material": 7,
          "mode": 4
        }
      ]
    }
  ],
  "nodes": [
    {
      "children": [
        1
      ],
      "matrix": [
        1.0,
        0.0,
        0.0,
        0.0,
        0.0,
        2.220446049250313e-16,
        -1.0,
        0.0,
        0.0,
        1.0,
        2.220446049250313e-16,
        0.0,
        0.0,
        0.0,
        0.0,
        1.0
      ],
      "name": "Sketchfab_model"
    },
    {
      "children": [
        2,
        3,
        4,
        5,
        6,
        7,
        8,
        9,
        10
      ],
      "name": "Collada visual scene group"
    },
    {
      "mesh": 0,
      "name": "Material2"
    },
    {
      "mesh": 1,
      "name": "Material2"
    },
    {
      "mesh": 2,
      "name": "Material2"
    },
    {
      "mesh": 3,
      "name": "Material3"
    },
    {
      "mesh": 4,
      "name": "Material4"
    },
    {
      "mesh": 5,
      "name": "Material5"
    },
    {
      "mesh": 6,
      "name": "Material2"
    },
    {
      "mesh": 7,
      "name": "Material3"
    },
    {
      "children": [
        11
      ],
      "name": "SketchUp"
    },
    {
      "children": [
        12
      ],
      "matrix": [
        0.5262006,
        0.8503605,
        0.0,
        0.0,
        -0.5505432,
        0.3406746,
        0.7621306,
        0.0,
        0.6480857,
        -0.4010336,
        0.6474234,
        0.0,
        161.9285,
        -128.8405,
        195.9411,
        1.0
      ],
      "name": "skp_camera_Last_Saved_SketchUp_View"
    },
    {
      "name": "ID1"
    }
  ],
  "samplers": [
    {
      "magFilter": 9729,
      "minFilter": 9987,
      "wrapS": 10497,
      "wrapT": 10497
    }
  ],
  "scene": 0,
  "scenes": [
    {
      "name": "Sketchfab_Scene",
      "nodes": [
        0
      ]
    }
  ],
  "textures": [
    {
      "sampler": 0,
      "source": 0
    },
    {
      "sampler": 0,
      "source": 1
    },
    {
      "sampler": 0,
      "source": 2
    },
    {
      "sampler": 0,
      "source": 3
    },
    {
      "sampler": 0,
      "source": 4
    },
    {
      "sampler": 0,
      "source": 5
    },
    {
      "sampler": 0,
      "source": 6
    },
    {
      "sampler": 0,
      "source": 7
    }
  ]
}
