{
  "accessors": [
    {
      "bufferView": 2,
      "componentType": 5126,
      "count": 1865,
      "max": [
        0.28070205450057983,
        0.32209712266921997,
        0.13202393054962158
      ],
      "min": [
        -0.3378318250179291,
        -0.32393819093704224,
        -0.0002643316984176636
      ],
      "type": "VEC3"
    },
    {
      "bufferView": 2,
      "byteOffset": 22380,
      "componentType": 5126,
      "count": 1865,
      "max": [
        1.0,
        1.0,
        1.0
      ],
      "min": [
        -1.0,
        -1.0,
        -1.0
      ],
      "type": "VEC3"
    },
    {
      "bufferView": 1,
      "componentType": 5126,
      "count": 1865,
      "max": [
        1.0,
        1.0
      ],
      "min": [
        0.0,
        0.0
      ],
      "type": "VEC2"
    },
    {
      "bufferView": 0,
      "componentType": 5125,
      "count": 5739,
      "type": "SCALAR"
    },
    {
      "bufferView": 2,
      "byteOffset": 44760,
      "componentType": 5126,
      "count": 2909,
      "max": [
        0.27184563875198364,
        0.31325507164001465,
        0.06990651041269302
      ],
      "min": [
        -0.32902050018310547,
        -0.3151117265224457,
        -0.0002643316984176636
      ],
      "type": "VEC3"
    },
    {
      "bufferView": 2,
      "byteOffset": 79668,
      "componentType": 5126,
      "count": 2909,
      "max": [
        0.9999871253967285,
        0.9999871253967285,
        0.9984684586524963
      ],
      "min": [
        -0.9999871253967285,
        -0.9999870657920837,
        -1.0
      ],
      "type": "VEC3"
    },
    {
      "bufferView": 1,
      "byteOffset": 14920,
      "componentType": 5126,
      "count": 2909,
      "max": [
        1.0,
        1.0
      ],
      "min": [
        0.0,
        0.0
      ],
      "type": "VEC2"
    },
    {
      "bufferView": 0,
      "byteOffset": 22956,
      "componentType": 5125,
      "count": 8910,
      "type": "SCALAR"
    },
    {
      "bufferView": 2,
      "byteOffset": 114576,
      "componentType": 5126,
      "count": 320,
      "max": [
        0.27184563875198364,
        0.31325507164001465,
        0.014604955911636353
      ],
      "min": [
        -0.32902050018310547,
        -0.3151117265224457,
        0.00016812235116958618
      ],
      "type": "VEC3"
    },
    {
      "bufferView": 2,
      "byteOffset": 118416,
      "componentType": 5126,
      "count": 320,
      "max": [
        0.9993378520011902,
        0.9999681115150452,
        5.405706360761542e-06
      ],
      "min": [
        -0.9993379712104797,
        -0.9999680519104004,
        -5.4056076805863995e-06
      ],
      "type": "VEC3"
    },
    {
      "bufferView": 1,
      "byteOffset": 38192,
      "componentType": 5126,
      "count": 320,
      "max": [
        0.9565598964691162,
        0.9565598964691162
      ],
      "min": [
        0.04344022274017334,
        0.04344022646546364
      ],
      "type": "VEC2"
    },
    {
      "bufferView": 0,
      "byteOffset": 58596,
      "componentType": 5125,
      "count": 960,
      "type": "SCALAR"
    }
  ],
  "asset": {
    "extras": {
      "author": "Black Snow (https://sketchfab.com/BlackSnow02)",
      "license": "CC-BY-4.0 (http://creativecommons.org/licenses/by/4.0/)",
      "source": "https://sketchfab.com/3d-models/ceiling-chandelier-63d588a565fa4ee38ce474c3394a4113",
      "title": "Ceiling chandelier"
    },
    "generator": "Sketchfab-15.30.0",
    "version": "2.0"
  },
  "bufferViews": [
    {
      "buffer": 0,
      "byteLength": 62436,
      "name": "floatBufferViews",
      "target": 34963
    },
    {
      "buffer": 0,
      "byteLength": 40752,
      "byteOffset": 62436,
      "byteStride": 8,
      "name": "floatBufferViews",
      "target": 34962
    },
    {
      "buffer": 0,
      "byteLength": 122256,
      "byteOffset": 103188,
      "byteStride": 12,
      "name": "floatBufferViews",
      "target": 34962
    }
  ],
  "buffers": [
    {
      "byteLength": 225444,
      "uri": "e.bin"
    }
  ],
  "extensionsUsed": [
    "KHR_materials_specular",
    "KHR_materials_emissive_strength"
  ],
  "materials": [
    {
      "doubleSided": true,
      "name": "metall2",
      "pbrMetallicRoughness": {
        "baseColorFactor": [
          0.11106511231140416,
          0.11106511231140416,
          0.11106511231140416,
          1.0
        ],
        "metallicFactor": 0.5775255696017358,
        "roughnessFactor": 0.1630481159561629
      }
    },
    {
      "doubleSided": true,
      "extensions": {
        "KHR_materials_specular": {
          "specularColorFactor": [
            1.0,
            1.0,
            1.0
          ],
          "specularFactor": 1.0
        }
      },
      "name": "metall1",
      "pbrMetallicRoughness": {
        "baseColorFactor": [
          0.429226,
          0.429226,
          0.429226,
          1.0
        ],
        "roughnessFactor": 0.0
      }
    },
    {
      "doubleSided": true,
      "emissiveFactor": [
        0.854422,
        1.0,
        0.988816
      ],
      "extensions": {
        "KHR_materials_emissive_strength": {
          "emissiveStrength": 5.043824895466348
        },
        "KHR_materials_specular": {
          "specularColorFactor": [
            1.0,
            1.0,
            1.0
          ],
          "specularFactor": 0.0
        }
      },
      "name": "light",
      "pbrMetallicRoughness": {
        "baseColorFactor": [
          0.8,
          0.8,
          0.8,
          1.0
        ],
        "metallicFactor": 0.0,
        "roughnessFactor": 0.1788854381999832
      }
    }
  ],
  "meshes": [
    {
      "name": "lamp_metall2_0",
      "primitives": [
        {
          "attributes": {
            "NORMAL": 1,
            "POSITION": 0,
            "TEXCOORD_0": 2
          },
          "indices": 3,
          "material": 0,
          "mode": 4
        }
      ]
    },
    {
      "name": "lamp_metall1_0",
      "primitives": [
        {
          "attributes": {
            "NORMAL": 5,
            "POSITION": 4,
            "TEXCOORD_0": 6
          },
          "indices": 7,
          "material": 1,
          "mode": 4
        }
      ]
    },
    {
      "name": "lamp_light_0",
      "primitives": [
        {
          "attributes": {
            "NORMAL": 9,
            "POSITION": 8,
            "TEXCOORD_0": 10
          },
          "indices": 11,
          "material": 2,
          "mode": 4
        }
      ]
    }
  ],
  "nodes": [
    {
      "children": [
        1
      ],
      "matrix": [
        1.0,
        0.0,
        0.0,
        0.0,
        0.0,
        2.220446049250313e-16,
        -1.0,
        0.0,
        0.0,
        1.0,
        2.220446049250313e-16,
        0.0,
        0.0,
        0.0,
        0.0,
        1.0
      ],
      "name": "Sketchfab_model"
    },
    {
      "children": [
        2
      ],
      "matrix": [
        0.009999999776482582,
        0.0,
        0.0,
        0.0,
        0.0,
        0.0,
        0.009999999776482582,
        0.0,
        0.0,
        -0.009999999776482582,
        0.0,
        0.0,
        0.0,
        0.0,
        0.0,
        1.0
      ],
      "name": "Ceiling chandelier.fbx"
    },
    {
      "children": [
        3
      ],
      "name": "RootNode"
    },
    {
      "children": [
        4,
        5,
        6
      ],
      "matrix": [
        100.0,
        0.0,
        0.0,
        0.0,
        0.0,
        -1.629206793918314e-05,
        -99.99999999999868,
        0.0,
        0.0,
        99.99999999999868,
        -1.629206793918314e-05,
        0.0,
        0.0,
        0.0,
        0.0,
        1.0
      ],
      "name": "lamp"
    },
    {
      "mesh": 0,
      "name": "lamp_metall2_0"
    },
    {
      "mesh": 1,
      "name": "lamp_metall1_0"
    },
    {
      "mesh": 2,
      "name": "lamp_light_0"
    }
  ],
  "scene": 0,
  "scenes": [
    {
      "name": "Sketchfab_Scene",
      "nodes": [
        0
      ]
    }
  ]
}
