{
  "accessors": [
    {
      "bufferView": 2,
      "componentType": 5126,
      "count": 9288,
      "max": [
        1086991.625,
        5371.5546875,
        -5943689.5
      ],
      "min": [
        1074128.375,
        2056.2587890625,
        -5958826.5
      ],
      "type": "VEC3"
    },
    {
      "bufferView": 2,
      "byteOffset": 111456,
      "componentType": 5126,
      "count": 9288,
      "max": [
        1.0,
        1.0,
        1.0
      ],
      "min": [
        -1.0,
        -1.0,
        -1.0
      ],
      "type": "VEC3"
    },
    {
      "bufferView": 0,
      "componentType": 5125,
      "count": 14358,
      "type": "SCALAR"
    },
    {
      "bufferView": 2,
      "byteOffset": 222912,
      "componentType": 5126,
      "count": 65532,
      "max": [
        1088148.0,
        5696.0,
        -5943570.5
      ],
      "min": [
        1074140.375,
        2054.0,
        -5958775.5
      ],
      "type": "VEC3"
    },
    {
      "bufferView": 2,
      "byteOffset": 1009296,
      "componentType": 5126,
      "count": 65532,
      "max": [
        0.9787472486495972,
        1.0,
        0.9070391058921814
      ],
      "min": [
        -0.9614777565002441,
        0.1865517944097519,
        -0.9533761143684387
      ],
      "type": "VEC3"
    },
    {
      "bufferView": 1,
      "componentType": 5126,
      "count": 65532,
      "max": [
        1.0,
        1.0
      ],
      "min": [
        0.0,
        0.0
      ],
      "type": "VEC2"
    },
    {
      "bufferView": 0,
      "byteOffset": 57432,
      "componentType": 5125,
      "count": 388452,
      "type": "SCALAR"
    },
    {
      "bufferView": 2,
      "byteOffset": 1795680,
      "componentType": 5126,
      "count": 65532,
      "max": [
        1088117.125,
        5880.0,
        -5943570.5
      ],
      "min": [
        1074140.375,
        2172.0,
        -5952327.0
      ],
      "type": "VEC3"
    },
    {
      "bufferView": 2,
      "byteOffset": 2582064,
      "componentType": 5126,
      "count": 65532,
      "max": [
        0.9690313935279846,
        1.0,
        0.9464773535728455
      ],
      "min": [
        -0.9580199122428894,
        0.20650649070739746,
        -0.9425630569458008
      ],
      "type": "VEC3"
    },
    {
      "bufferView": 1,
      "byteOffset": 524256,
      "componentType": 5126,
      "count": 65532,
      "max": [
        0.997795820236206,
        1.0
      ],
      "min": [
        0.0,
        0.42410391569137573
      ],
      "type": "VEC2"
    },
    {
      "bufferView": 0,
      "byteOffset": 1611240,
      "componentType": 5125,
      "count": 389304,
      "type": "SCALAR"
    },
    {
      "bufferView": 2,
      "byteOffset": 3368448,
      "componentType": 5126,
      "count": 22634,
      "max": [
        1088086.125,
        4958.0,
        -5943570.5
      ],
      "min": [
        1074140.375,
        1902.0,
        -5952327.0
      ],
      "type": "VEC3"
    },
    {
      "bufferView": 2,
      "byteOffset": 3640056,
      "componentType": 5126,
      "count": 22634,
      "max": [
        0.894719660282135,
        0.9998364448547363,
        0.8293367624282837
      ],
      "min": [
        -0.8735541105270386,
        0.365805447101593,
        -0.8264809846878052
      ],
      "type": "VEC3"
    },
    {
      "bufferView": 1,
      "byteOffset": 1048512,
      "componentType": 5126,
      "count": 22634,
      "max": [
        0.9955827593803406,
        1.0
      ],
      "min": [
        0.0,
        0.42410391569137573
      ],
      "type": "VEC2"
    },
    {
      "bufferView": 0,
      "byteOffset": 3168456,
      "componentType": 5125,
      "count": 132774,
      "type": "SCALAR"
    }
  ],
  "asset": {
    "extras": {
      "author": "Xavier Fischer - Elevation API (https://sketchfab.com/xfischer)",
      "license": "CC-BY-NC-SA-4.0 (http://creativecommons.org/licenses/by-nc-sa/4.0/)",
      "source": "https://sketchfab.com/3d-models/austrian-alps-schesaplana-b1502ce2041b42cc885729dd38c69614",
      "title": "Austrian Alps (Schesaplana)"
    },
    "generator": "Sketchfab-12.68.0",
    "version": "2.0"
  },
  "bufferViews": [
    {
      "buffer": 0,
      "byteLength": 3699552,
      "name": "floatBufferViews",
      "target": 34963
    },
    {
      "buffer": 0,
      "byteLength": 1229584,
      "byteOffset": 3699552,
      "byteStride": 8,
      "name": "floatBufferViews",
      "target": 34962
    },
    {
      "buffer": 0,
      "byteLength": 3911664,
      "byteOffset": 4929136,
      "byteStride": 12,
      "name": "floatBufferViews",
      "target": 34962
    }
  ],
  "buffers": [
    {
      "byteLength": 8840800,
      "uri": "scene.bin"
    }
  ],
  "images": [
    {
      "uri": "textures/Default_0_baseColor.jpeg"
    }
  ],
  "materials": [
    {
      "doubleSided": true,
      "name": "Default",
      "pbrMetallicRoughness": {
        "metallicFactor": 0.3806418661745439
      }
    },
    {
      "doubleSided": true,
      "name": "Default_0",
      "pbrMetallicRoughness": {
        "baseColorTexture": {
          "index": 0
        },
        "metallicFactor": 0.0
      }
    }
  ],
  "meshes": [
    {
      "name": "Object_0",
      "primitives": [
        {
          "attributes": {
            "NORMAL": 1,
            "POSITION": 0
          },
          "indices": 2,
          "material": 0,
          "mode": 4
        }
      ]
    },
    {
      "name": "Object_1",
      "primitives": [
        {
          "attributes": {
            "NORMAL": 4,
            "POSITION": 3,
            "TEXCOORD_0": 5
          },
          "indices": 6,
          "material": 1,
          "mode": 4
        }
      ]
    },
    {
      "name": "Object_2",
      "primitives": [
        {
          "attributes": {
            "NORMAL": 8,
            "POSITION": 7,
            "TEXCOORD_0": 9
          },
          "indices": 10,
          "material": 1,
          "mode": 4
        }
      ]
    },
    {
      "name": "Object_3",
      "primitives": [
        {
          "attributes": {
            "NORMAL": 12,
            "POSITION": 11,
            "TEXCOORD_0": 13
          },
          "indices": 14,
          "material": 1,
          "mode": 4
        }
      ]
    }
  ],
  "nodes": [
    {
      "children": [
        1
      ],
      "matrix": [
        0.0948055312037468,
        0.0,
        0.0,
        0.0,
        0.0,
        2.1051056720843685e-17,
        -0.0948055312037468,
        0.0,
        0.0,
        0.0948055312037468,
        2.1051056720843685e-17,
        0.0,
        0.0,
        0.0,
        0.0,
        1.0
      ],
      "name": "Sketchfab_model"
    },
    {
      "children": [
        2
      ],
      "name": "root"
    },
    {
      "children": [
        3
      ],
      "matrix": [
        1.0,
        0.0,
        0.0,
        0.0,
        0.0,
        2.220446049250313e-16,
        1.0,
        0.0,
        0.0,
        -1.0,
        2.220446049250313e-16,
        0.0,
        0.0,
        0.0,
        0.0,
        1.0
      ],
      "name": "GLTF_SceneRootNode"
    },
    {
      "children": [
        4,
        5,
        6,
        7
      ],
      "name": "TerrainNode_0"
    },
    {
      "mesh": 0,
      "name": "Object_4"
    },
    {
      "mesh": 1,
      "name": "Object_5"
    },
    {
      "mesh": 2,
      "name": "Object_6"
    },
    {
      "mesh": 3,
      "name": "Object_7"
    }
  ],
  "samplers": [
    {
      "magFilter": 9729,
      "minFilter": 9987,
      "wrapS": 10497,
      "wrapT": 10497
    }
  ],
  "scene": 0,
  "scenes": [
    {
      "name": "Sketchfab_Scene",
      "nodes": [
        0
      ]
    }
  ],
  "textures": [
    {
      "sampler": 0,
      "source": 0
    }
  ]
}
